<svg width="105" height="20" viewBox="0 0 105 20" fill="none" xmlns="http://www.w3.org/2000/svg">
<path d="M1.01953 0C1.58212 0.000254583 2.03809 0.449263 2.03809 1.00293C2.03803 1.41401 1.78654 1.76711 1.42676 1.92188V19.7441C1.42653 19.8855 1.30971 20 1.16602 20H0.87207C0.72838 20 0.611552 19.8855 0.611328 19.7441V1.92188C0.251556 1.76711 5.82114e-05 1.41401 0 1.00293C0 0.449106 0.456724 0 1.01953 0ZM8.99316 1.22266C12.7851 1.22272 15.3674 1.83006 17.751 1.83008C19.9916 1.83008 21.6104 1.74037 23.1465 1.56152C23.3019 1.54364 23.4393 1.66336 23.4395 1.81738V14.8838C23.4394 15.0032 23.3559 15.1068 23.2363 15.127C22.1793 15.3033 19.6896 15.3916 17.751 15.3916C15.6743 15.3916 12.6039 14.7842 9.35352 14.7842C6.22879 14.7842 4.5093 14.9634 2.88867 15.2373C2.72884 15.2643 2.58223 15.1439 2.58203 14.9844V1.95508C2.5822 1.82613 2.67957 1.71667 2.80957 1.7002C4.39697 1.49903 6.37501 1.22266 8.99316 1.22266ZM12.1426 7.42969C11.0474 7.35355 10.0993 7.36426 9.26367 7.36426V9.12012C9.8467 9.12012 10.9005 9.12112 12.1396 9.22754C12.1383 10.6494 12.1405 11.9017 12.1523 12.1562C12.6035 12.2574 12.8746 12.2577 13.7686 12.418V9.40625C15.0142 9.55127 15.9315 9.62597 16.8486 9.62598V7.80469C15.8553 7.80468 15.1202 7.73091 13.7686 7.58594V4.61816C13.7392 4.61432 12.5983 4.46493 12.1523 4.46484C12.1522 4.48919 12.1465 5.85371 12.1426 7.42969Z" fill="#111827"/>
<path d="M30.6484 5.48998V5.10108L35.3434 3.56836V5.83313C36.2366 4.66643 37.1756 3.56836 39.0078 3.56836C40.9545 3.56836 42.489 4.89519 42.489 7.91488V12.7876C42.489 15.1438 42.5119 15.4641 44.3212 15.67V16.0818H38.0001V15.67C39.5804 15.4641 39.6033 15.1438 39.6033 12.7876V8.46392C39.6033 6.49654 38.8933 5.51286 37.4734 5.51286C36.5802 5.51286 35.8015 5.856 35.3663 6.45079V12.7876C35.3663 15.1438 35.3892 15.4641 36.9695 15.67V16.0818H30.6484V15.67C32.4577 15.4641 32.4806 15.1438 32.4806 12.7876V7.68612C32.4806 5.55861 32.3203 5.53573 30.6484 5.48998Z" fill="#111827"/>
<path d="M49.34 3.59124C50.3248 3.59124 51.6074 3.79712 52.3861 4.14027L52.5006 7.84626H52.0654C51.5616 5.58149 50.3706 4.46054 48.9965 4.46054C47.8514 4.46054 46.9811 5.00958 46.9811 5.92463C46.9811 6.79394 47.6911 7.36585 48.653 7.91488L49.9126 8.62405C52.0196 9.81363 53.2334 10.6372 53.2334 12.5588C53.2334 15.0295 50.8516 16.3792 48.6072 16.3792C47.5078 16.3792 45.9047 16.0818 44.9199 15.5785V11.2548H45.355C45.8131 14.1602 47.004 15.4184 48.6759 15.4184C49.9126 15.4184 50.989 14.8693 50.989 13.5654C50.989 12.6732 50.3019 12.1013 49.1797 11.4607L47.9659 10.7973C46.3169 9.85938 44.9428 8.94432 44.9428 7.0227C44.9428 4.66643 47.3017 3.59124 49.34 3.59124Z" fill="#111827"/>
<path d="M54.7362 14.5262C54.7362 13.5196 55.5607 12.6961 56.5684 12.6961C57.6219 12.6961 58.4464 13.5196 58.4464 14.5262C58.4464 15.5556 57.6219 16.3792 56.5684 16.3792C55.5607 16.3792 54.7362 15.5556 54.7362 14.5262Z" fill="#111827"/>
<path d="M66.1051 3.56836C68.0977 3.56836 69.7466 4.57492 69.7466 5.856C69.7466 6.6338 69.1512 7.25147 68.2122 7.25147C67.8228 7.25147 67.4793 7.18284 67.1816 6.67956L66.151 4.94095C65.9448 4.5978 65.8074 4.52917 65.441 4.52917C63.792 4.50629 62.3262 5.94751 62.3262 8.99008C62.3262 12.3072 64.2271 14.1602 66.6777 14.1602C67.6396 14.1602 68.8763 13.7484 69.7466 13.0392L70.0215 13.268C69.197 14.5948 67.7999 16.3792 65.3723 16.3792C61.7079 16.3792 59.7383 13.7026 59.7383 10.2025C59.7383 5.92463 63.082 3.56836 66.1051 3.56836Z" fill="#111827"/>
<path d="M76.7877 4.39191C74.7265 4.39191 73.8791 6.45079 73.8791 9.15021C73.8791 11.3692 74.7036 15.5556 77.3832 15.5556C79.4215 15.5556 80.246 13.3824 80.246 10.7287C80.246 8.5783 79.4444 4.39191 76.7877 4.39191ZM76.9938 3.56836C80.4063 3.56836 83.292 6.2449 83.292 9.95089C83.292 13.4281 80.6582 16.3792 77.1083 16.3792C73.6501 16.3792 70.8102 13.6797 70.8102 9.90514C70.8102 6.51942 73.421 3.56836 76.9938 3.56836Z" fill="#111827"/>
<path d="M83.6371 5.48998V5.10108L88.3321 3.56836V5.83313C89.2253 4.66643 90.1643 3.56836 91.9965 3.56836C93.4623 3.56836 94.699 4.32328 95.2029 5.99326C96.0502 4.68931 97.3557 3.56836 99.1421 3.56836C101.066 3.56836 102.6 4.89519 102.6 7.91488V12.7876C102.6 15.1438 102.623 15.4641 104.433 15.67V16.0818H98.1115V15.67C99.6917 15.4641 99.7146 15.1438 99.7146 12.7876V8.46392C99.7146 6.49654 99.0047 5.51286 97.6076 5.51286C96.7831 5.51286 95.867 5.83313 95.3403 6.51942C95.409 6.9312 95.4777 7.4116 95.4777 7.91488V12.7876C95.4777 15.1438 95.5006 15.4641 97.3099 15.67V16.0818H90.9888V15.67C92.5691 15.4641 92.592 15.1438 92.592 12.7876V8.46392C92.592 6.49654 91.882 5.51286 90.4621 5.51286C89.5689 5.51286 88.7902 5.856 88.355 6.45079V12.7876C88.355 15.1438 88.3779 15.4641 89.9582 15.67V16.0818H83.6371V15.67C85.4464 15.4641 85.4693 15.1438 85.4693 12.7876V7.68612C85.4693 5.55861 85.309 5.53573 83.6371 5.48998Z" fill="#111827"/>
</svg>
