<svg xmlns="http://www.w3.org/2000/svg" width="135" height="32" viewBox="0 0 135 32" fill="none" preserveAspectRatio="xMidYMid meet" aria-hidden="true" role="img"><g clip-path="url(#clip0_3712_720)"><path fill-rule="evenodd" clip-rule="evenodd" d="M30.79 16C30.79 24.1686 24.1686 30.79 16 30.79C7.83138 30.79 1.21009 24.1686 1.21009 16C1.21009 7.83137 7.83145 1.21007 16 1.21007C24.1685 1.21007 30.79 7.83144 30.79 16ZM32 16C32 24.8369 24.8369 32 16 32C7.16309 32 0 24.8369 0 16C0 7.16308 7.16308 -1.14441e-05 16 -1.14441e-05C24.8369 -1.14441e-05 32 7.16307 32 16ZM15.4778 8.28157H11.413C7.32482 8.28157 6.84935 10.0821 6.84935 11.793C6.84935 14.5619 8.84863 15.5733 11.0739 15.9123H6.84935V23.8354H10.9141C15.0023 23.8354 15.4778 22.0348 15.4778 20.324C15.4778 18.2312 14.0241 16.7677 11.7755 16.2046H15.4778V8.28157ZM27.1734 10.6686V12.3113C27.1734 14.5386 25.3572 16.3391 23.1086 16.3391H22.8806V23.7886H22.1538C17.7265 23.7886 16.8399 20.7273 16.8399 18.0052L16.7717 8.28157H22.8806V10.6686L27.1734 10.6686Z" fill="#EE2536"></path><path fill-rule="evenodd" clip-rule="evenodd" d="M50.1378 19.2662C50.1378 20.5313 49.7187 21.5809 48.8807 22.4189C47.7992 23.5005 46.2068 24.0392 44.1077 24.0392C42.2319 24.0392 40.7274 23.5205 39.59 22.4828C38.5365 21.5291 38.0137 20.3597 38.0137 18.967H40.8272C40.8272 19.6772 41.0905 20.2959 41.6174 20.8226C42.1561 21.3614 43.0021 21.6328 44.1556 21.6328C45.3767 21.6328 46.2507 21.3614 46.7775 20.8226C47.1766 20.3957 47.3761 19.9127 47.3761 19.374C47.3761 18.3923 46.7775 17.7976 45.5842 17.5821C45.2291 17.5102 44.6624 17.4384 43.8801 17.3706C43.0979 17.2988 42.5512 17.2349 42.2399 17.1791C41.1185 16.9955 40.1967 16.5445 39.4783 15.8262C38.76 15.1078 38.4008 14.154 38.4008 12.9608C38.4008 11.8513 38.8397 10.8576 39.7218 9.9756C40.2326 9.47674 40.8791 9.08963 41.6612 8.8023C42.4434 8.51894 43.2735 8.37528 44.1556 8.37528C45.9195 8.37528 47.3243 8.86615 48.3778 9.84789C49.3875 10.8017 49.8983 11.8712 49.9143 13.0685H47.1008C47.0728 12.5137 46.8533 12.0189 46.4382 11.5759C46.1948 11.3365 45.8596 11.1409 45.4246 10.9893C44.9896 10.8416 44.5626 10.7658 44.1355 10.7658C43.0421 10.7658 42.2239 11.0411 41.6852 11.5959C41.346 11.967 41.1743 12.3901 41.1743 12.8729C41.1743 13.7988 41.6852 14.3455 42.7108 14.5131C43.066 14.5691 43.6407 14.6409 44.4388 14.7247C45.2021 14.8052 45.711 14.8636 45.9655 14.8929L45.9953 14.8963C47.2045 15.0679 48.1983 15.5268 48.9805 16.2811C49.7626 17.0353 50.1537 18.0291 50.1537 19.2662L50.1378 19.2662ZM55.0961 11.1445H52.2388V8.39486H55.0961V11.1445ZM55.0323 23.7636H52.3266V12.681H55.0323V23.7636ZM64.4724 23.764H67.1383L67.1343 23.7559V16.361C67.1343 15.1837 66.799 14.2258 66.1326 13.4955C65.4662 12.7652 64.5482 12.398 63.3829 12.398C62.7005 12.398 62.066 12.5418 61.4753 12.8331C60.8847 13.1244 60.4337 13.5474 60.1224 14.1022L59.9308 12.6735H57.692V23.7559H60.3579V19.2384C60.3579 17.8177 60.4776 16.8319 60.721 16.2772C61.148 15.3393 61.7866 14.8724 62.6407 14.8724C63.3071 14.8724 63.782 15.048 64.0573 15.3951C64.3328 15.7464 64.4724 16.2692 64.4724 16.9636L64.4724 23.764ZM79.7074 25.2361C79.7074 25.9305 79.5478 26.533 79.2285 27.0359C78.9092 27.5388 78.4782 27.9259 77.9395 28.1853C77.4007 28.4486 76.834 28.6402 76.2434 28.76C75.6527 28.8797 75.0262 28.9395 74.3557 28.9395C72.6077 28.9395 71.2988 28.6322 70.4328 28.0216C69.5388 27.3951 69.0878 26.5849 69.0878 25.5913C69.0878 24.5257 69.5268 23.7714 70.4088 23.3324C70.0696 23.1488 69.7982 22.8774 69.5986 22.5223C69.3991 22.1671 69.2994 21.804 69.2994 21.4368C69.2994 20.483 69.7383 19.7407 70.6203 19.198C69.882 18.4596 69.5108 17.5497 69.5108 16.4683C69.5108 15.1911 69.9418 14.1895 70.7999 13.4751C71.6579 12.7567 72.7434 12.3976 74.0524 12.3976C74.9623 12.3976 75.8004 12.625 76.5666 13.08C77.0216 12.1581 77.7758 11.6951 78.8254 11.6951C79.1965 11.6951 79.4361 11.7111 79.5517 11.7391V13.8063C79.5517 13.8063 79.5039 13.8063 79.444 13.7944C79.3882 13.7864 79.3523 13.7824 79.3363 13.7824C78.5979 13.7824 78.151 14.0179 77.9953 14.4847C78.3785 15.1113 78.57 15.7778 78.57 16.4882C78.57 17.7094 78.131 18.6871 77.249 19.4175C76.3671 20.1478 75.3015 20.5149 74.0524 20.5149C73.4258 20.5149 72.8312 20.4152 72.2606 20.2156C71.8894 20.4271 71.7058 20.6905 71.7058 21.0058C71.7058 21.5446 72.1089 21.816 72.9191 21.816H74.7508C76.4429 21.816 77.6442 22.0633 78.3545 22.5622C79.2484 23.1728 79.6954 24.0627 79.6954 25.2281L79.7074 25.2361ZM77.1932 25.2999C77.1932 24.9727 77.1094 24.7092 76.9498 24.5098C76.7861 24.3102 76.5467 24.1705 76.2234 24.0947C75.9042 24.0148 75.6328 23.971 75.4133 23.955C75.1938 23.939 74.9064 23.9351 74.5513 23.9351H72.4641C71.7976 24.1345 71.4623 24.5895 71.4623 25.2999C71.4623 26.3216 72.3922 26.8364 74.2559 26.8364C76.2154 26.8364 77.1971 26.3256 77.1971 25.2999H77.1932ZM75.4891 17.9567C75.8443 17.5816 76.0199 17.0868 76.0199 16.4762C76.0199 15.8656 75.8403 15.3667 75.4891 14.9836C75.1339 14.6005 74.659 14.409 74.0604 14.409C73.4617 14.409 72.9868 14.6005 72.6316 14.9836C72.2764 15.3667 72.0969 15.8656 72.0969 16.4762C72.0969 17.0868 72.2764 17.5816 72.6316 17.9567C72.9868 18.332 73.4618 18.5235 74.0604 18.5235C74.659 18.5235 75.1339 18.3359 75.4891 17.9567ZM89.8497 23.9355C90.2607 23.9355 90.7038 23.8358 91.1707 23.6362V21.6688L90.8315 21.7127C90.604 21.7127 90.4443 21.6608 90.3526 21.553C90.2568 21.4453 90.2128 21.2657 90.2128 21.0103V16.8957C90.2128 15.942 90.1051 15.1957 89.8936 14.6569C89.3109 13.1524 87.9221 12.398 85.7352 12.398C84.4302 12.398 83.3526 12.7014 82.5066 13.304C81.6645 13.9106 81.2056 14.8086 81.1338 16.0018H83.7118C83.7796 14.9522 84.4541 14.4254 85.7352 14.4254C86.4456 14.4254 86.9364 14.5731 87.2078 14.8724C87.4752 15.1717 87.6109 15.6067 87.6109 16.1734V16.8559L84.3503 17.0913C83.2528 17.1592 82.3549 17.5023 81.6526 18.1129C80.9502 18.7235 80.5989 19.5416 80.5989 20.5633C80.5989 21.5291 80.9502 22.3513 81.6526 23.0256C82.359 23.7001 83.3406 24.0393 84.6058 24.0393C85.3601 24.0393 86.0425 23.8797 86.653 23.5604C87.2636 23.2411 87.7026 22.8461 87.974 22.3791C88.0179 22.8221 88.2015 23.1893 88.5288 23.4886C88.856 23.7879 89.295 23.9355 89.8497 23.9355ZM87.6109 18.8393V19.3501C87.6109 20.1443 87.3515 20.7669 86.8327 21.2138C86.3138 21.6608 85.6314 21.8843 84.7773 21.8843C84.3503 21.8843 83.9792 21.7565 83.668 21.5011C83.3566 21.2457 83.201 20.9225 83.201 20.4995C83.201 20.0764 83.3566 19.7332 83.668 19.4778C83.9792 19.2224 84.3584 19.0787 84.7974 19.0507L87.6109 18.8393ZM103.463 18.2002C103.463 20.4191 102.801 22.0673 101.48 23.1449C100.742 23.7435 99.8396 24.0388 98.7741 24.0388C97.4372 24.0388 96.4714 23.6756 95.8768 22.9533V28.0057H93.2109V12.681H95.5137L95.6853 13.8941C96.3237 12.9124 97.3614 12.4215 98.7981 12.4215C99.8197 12.4215 100.718 12.7328 101.484 13.3594C102.805 14.4528 103.467 16.0652 103.467 18.1963L103.463 18.2002ZM100.758 18.2441C100.758 17.0509 100.522 16.149 100.055 15.5384C99.6002 14.9557 99.0016 14.6644 98.2633 14.6644C96.5871 14.6644 95.749 15.8576 95.749 18.2441C95.749 20.6306 96.5871 21.804 98.2633 21.804C99.0016 21.804 99.6002 21.5127 100.055 20.9299C100.522 20.3194 100.758 19.4254 100.758 18.2441ZM113.944 22.319C114.81 21.2216 115.246 19.8606 115.246 18.2244C115.246 16.5882 114.81 15.2233 113.944 14.1299C113.533 13.631 112.982 13.2199 112.292 12.8926C111.601 12.5654 110.859 12.4018 110.064 12.4018C109.271 12.4018 108.529 12.5654 107.838 12.8926C107.148 13.2199 106.597 13.631 106.186 14.1299C105.32 15.2273 104.885 16.5882 104.885 18.2244C104.885 19.8606 105.32 21.2255 106.186 22.319C106.597 22.8179 107.148 23.2289 107.838 23.5562C108.529 23.8834 109.271 24.0471 110.064 24.0471C110.859 24.0471 111.601 23.8834 112.292 23.5562C112.982 23.2289 113.533 22.8179 113.944 22.319ZM111.749 15.4308C112.276 16.0135 112.539 16.9473 112.539 18.2244C112.539 19.5054 112.276 20.4353 111.749 21.0179C111.31 21.4849 110.748 21.7204 110.064 21.7204C109.382 21.7204 108.82 21.4849 108.381 21.0179C107.854 20.4353 107.591 19.5054 107.591 18.2244C107.591 16.9434 107.854 16.0135 108.381 15.4308C108.82 14.9639 109.382 14.7285 110.064 14.7285C110.748 14.7285 111.31 14.96 111.749 15.4308ZM123.423 15.1512L123.419 15.1503V12.593C123.152 12.5492 122.872 12.5292 122.589 12.5292C121.895 12.5292 121.256 12.6768 120.681 12.9762C120.107 13.2755 119.7 13.7305 119.456 14.3411L119.221 12.6768H116.962V23.7593H119.647V18.1762C119.647 17.2543 119.896 16.5 120.394 15.9174C120.892 15.3347 121.595 15.0434 122.505 15.0434C122.791 15.0434 123.093 15.079 123.419 15.1503V15.1512L123.423 15.1512ZM134.483 19.0543C134.483 18.8987 134.488 18.6473 134.503 18.308V18.3121C134.548 16.7756 134.228 15.4906 133.545 14.453C132.636 13.0881 131.287 12.4057 129.495 12.4057C128.042 12.4057 126.865 12.8726 125.955 13.8105C124.889 14.9039 124.355 16.3805 124.355 18.2443C124.355 20.108 124.921 21.5845 126.058 22.6781C127.008 23.5879 128.174 24.0429 129.555 24.0429C131.163 24.0429 132.404 23.524 133.286 22.4864C133.841 21.816 134.153 21.1375 134.224 20.4391H131.666C131.57 20.8103 131.391 21.1215 131.135 21.3771C130.78 21.7362 130.241 21.9118 129.514 21.9118C128.904 21.9118 128.358 21.6843 127.875 21.2294C127.308 20.6906 127.037 19.9642 127.065 19.0543L134.483 19.0543ZM131.156 15.1753C131.594 15.6582 131.822 16.3047 131.838 17.1148V17.1188H127.041C127.053 16.4364 127.244 15.8617 127.616 15.3908C128.042 14.8201 128.66 14.5367 129.471 14.5367C130.197 14.5367 130.756 14.7483 131.156 15.1753Z" fill="white"></path></g><defs><clipPath id="clip0_3712_720"><rect width="134.506" height="32" fill="white"></rect></clipPath></defs></svg>