<svg xmlns="http://www.w3.org/2000/svg" width="1360" height="269" viewBox="0 0 1360 269" fill="none"><g clip-path="url(#clip0_7_2)"><path d="M830.045 252.283C826.752 252.283 823.737 251.548 821.001 250.079C818.316 248.61 816.239 246.532 814.769 243.847L815.757 242.631V251.371H808.841V193.839H815.909V219.223L814.845 217.475C816.365 215.043 818.443 213.118 821.077 211.699C823.712 210.23 826.727 209.495 830.121 209.495C833.972 209.495 837.417 210.432 840.457 212.307C843.548 214.182 845.98 216.74 847.753 219.983C849.527 223.175 850.413 226.823 850.413 230.927C850.413 234.93 849.527 238.552 847.753 241.795C845.98 245.038 843.548 247.596 840.457 249.471C837.417 251.346 833.947 252.283 830.045 252.283ZM829.513 245.443C832.097 245.443 834.403 244.81 836.429 243.543C838.456 242.276 840.027 240.554 841.141 238.375C842.307 236.146 842.889 233.663 842.889 230.927C842.889 228.09 842.307 225.607 841.141 223.479C840.027 221.3 838.456 219.578 836.429 218.311C834.403 216.994 832.097 216.335 829.513 216.335C826.929 216.335 824.599 216.968 822.521 218.235C820.495 219.502 818.873 221.25 817.657 223.479C816.492 225.658 815.909 228.14 815.909 230.927C815.909 233.663 816.492 236.146 817.657 238.375C818.873 240.554 820.495 242.276 822.521 243.543C824.599 244.81 826.929 245.443 829.513 245.443ZM863.423 268.091C862.511 268.091 861.599 268.015 860.687 267.863C859.775 267.711 858.914 267.458 858.103 267.103V260.795C858.66 260.896 859.344 260.998 860.155 261.099C861.016 261.251 861.852 261.327 862.663 261.327C865.044 261.327 866.843 260.795 868.059 259.731C869.326 258.718 870.516 256.944 871.631 254.411L874.215 248.255L874.063 254.411L856.583 210.407H864.259L877.863 245.367H875.583L889.111 210.407H896.939L878.471 256.235C877.61 258.414 876.495 260.39 875.127 262.163C873.81 263.987 872.188 265.431 870.263 266.495C868.338 267.559 866.058 268.091 863.423 268.091ZM947.83 252.283C943.82 252.283 940.13 251.574 936.73 250.155C933.39 248.686 930.45 246.634 927.92 243.999C925.43 241.364 923.51 238.274 922.14 234.727C920.77 231.18 920.09 227.304 920.09 223.099C920.09 218.843 920.77 214.942 922.14 211.395C923.51 207.848 925.43 204.758 927.92 202.123C930.4 199.488 933.34 197.462 936.73 196.043C940.13 194.574 943.82 193.839 947.83 193.839C951.73 193.839 955.22 194.523 958.32 195.891C961.46 197.259 964.09 199.032 966.22 201.211C968.4 203.39 969.94 205.72 970.86 208.203L964.02 211.319C962.7 208.178 960.65 205.644 957.86 203.719C955.07 201.743 951.73 200.755 947.83 200.755C943.88 200.755 940.35 201.692 937.26 203.567C934.22 205.442 931.84 208.051 930.12 211.395C928.4 214.739 927.54 218.64 927.54 223.099C927.54 227.507 928.4 231.383 930.12 234.727C931.84 238.071 934.22 240.68 937.26 242.555C940.35 244.43 943.88 245.367 947.83 245.367C951.73 245.367 955.07 244.404 957.86 242.479C960.65 240.503 962.7 237.944 964.02 234.803L970.86 237.919C969.94 240.402 968.4 242.732 966.22 244.911C964.09 247.09 961.46 248.863 958.32 250.231C955.22 251.599 951.73 252.283 947.83 252.283ZM1001.14 252.283C997.19 252.283 993.62 251.371 990.43 249.547C987.24 247.672 984.7 245.114 982.83 241.871C980.95 238.628 980.02 234.955 980.02 230.851C980.02 226.747 980.93 223.099 982.75 219.907C984.63 216.715 987.16 214.182 990.35 212.307C993.54 210.432 997.14 209.495 1001.14 209.495C1005.1 209.495 1008.67 210.432 1011.86 212.307C1015.05 214.131 1017.56 216.639 1019.38 219.831C1021.26 223.023 1022.2 226.696 1022.2 230.851C1022.2 235.006 1021.23 238.704 1019.31 241.947C1017.38 245.139 1014.82 247.672 1011.63 249.547C1008.49 251.371 1004.99 252.283 1001.14 252.283ZM1001.14 245.443C1003.68 245.443 1005.96 244.81 1007.98 243.543C1010.06 242.276 1011.68 240.528 1012.85 238.299C1014.06 236.07 1014.67 233.587 1014.67 230.851C1014.67 228.064 1014.06 225.607 1012.85 223.479C1011.68 221.3 1010.06 219.578 1007.98 218.311C1005.96 216.994 1003.68 216.335 1001.14 216.335C998.56 216.335 996.23 216.994 994.15 218.311C992.13 219.578 990.5 221.3 989.29 223.479C988.07 225.607 987.46 228.064 987.46 230.851C987.46 233.587 988.07 236.07 989.29 238.299C990.5 240.528 992.13 242.276 994.15 243.543C996.23 244.81 998.56 245.443 1001.14 245.443ZM1033.69 251.371V210.407H1040.61V217.931L1039.85 216.867C1040.81 214.536 1042.28 212.814 1044.26 211.699C1046.23 210.534 1048.64 209.951 1051.48 209.951H1053.99V216.639H1050.41C1047.53 216.639 1045.2 217.551 1043.42 219.375C1041.65 221.148 1040.76 223.682 1040.76 226.975V251.371H1033.69ZM1081.39 252.283C1077.44 252.283 1073.92 251.346 1070.83 249.471C1067.74 247.596 1065.31 245.038 1063.53 241.795C1061.76 238.502 1060.87 234.828 1060.87 230.775C1060.87 226.671 1061.73 223.023 1063.46 219.831C1065.23 216.639 1067.61 214.131 1070.6 212.307C1073.64 210.432 1077.04 209.495 1080.78 209.495C1083.82 209.495 1086.51 210.052 1088.84 211.167C1091.22 212.231 1093.22 213.7 1094.84 215.575C1096.52 217.399 1097.78 219.502 1098.64 221.883C1099.56 224.214 1100.01 226.646 1100.01 229.179C1100.01 229.736 1099.96 230.37 1099.86 231.079C1099.81 231.738 1099.73 232.371 1099.63 232.979H1066.04V226.899H1095.53L1092.18 229.635C1092.64 227 1092.39 224.644 1091.42 222.567C1090.46 220.49 1089.04 218.843 1087.17 217.627C1085.29 216.411 1083.17 215.803 1080.78 215.803C1078.4 215.803 1076.22 216.411 1074.25 217.627C1072.27 218.843 1070.73 220.591 1069.61 222.871C1068.55 225.1 1068.12 227.76 1068.32 230.851C1068.12 233.84 1068.57 236.475 1069.69 238.755C1070.85 240.984 1072.48 242.732 1074.55 243.999C1076.68 245.215 1078.99 245.823 1081.47 245.823C1084.2 245.823 1086.51 245.19 1088.38 243.923C1090.26 242.656 1091.78 241.035 1092.94 239.059L1098.87 242.099C1098.06 243.974 1096.8 245.696 1095.07 247.267C1093.4 248.787 1091.4 250.003 1089.07 250.915C1086.79 251.827 1084.23 252.283 1081.39 252.283ZM1122.76 251.371L1106.87 194.751H1114.7L1128 244.607H1126.18L1140.01 194.751H1147.84L1161.59 244.607H1159.69L1173.07 194.751H1180.9L1165.01 251.371H1156.73L1142.9 201.743H1144.87L1131.04 251.371H1122.76ZM1205.52 252.283C1201.57 252.283 1198.05 251.346 1194.96 249.471C1191.86 247.596 1189.43 245.038 1187.66 241.795C1185.89 238.502 1185 234.828 1185 230.775C1185 226.671 1185.86 223.023 1187.58 219.831C1189.36 216.639 1191.74 214.131 1194.73 212.307C1197.77 210.432 1201.16 209.495 1204.91 209.495C1207.95 209.495 1210.64 210.052 1212.97 211.167C1215.35 212.231 1217.35 213.7 1218.97 215.575C1220.64 217.399 1221.91 219.502 1222.77 221.883C1223.68 224.214 1224.14 226.646 1224.14 229.179C1224.14 229.736 1224.09 230.37 1223.99 231.079C1223.94 231.738 1223.86 232.371 1223.76 232.979H1190.17V226.899H1219.66L1216.31 229.635C1216.77 227 1216.51 224.644 1215.55 222.567C1214.59 220.49 1213.17 218.843 1211.3 217.627C1209.42 216.411 1207.29 215.803 1204.91 215.803C1202.53 215.803 1200.35 216.411 1198.38 217.627C1196.4 218.843 1194.85 220.591 1193.74 222.871C1192.68 225.1 1192.24 227.76 1192.45 230.851C1192.24 233.84 1192.7 236.475 1193.82 238.755C1194.98 240.984 1196.6 242.732 1198.68 243.999C1200.81 245.215 1203.11 245.823 1205.6 245.823C1208.33 245.823 1210.64 245.19 1212.51 243.923C1214.39 242.656 1215.91 241.035 1217.07 239.059L1223 242.099C1222.19 243.974 1220.92 245.696 1219.2 247.267C1217.53 248.787 1215.53 250.003 1213.2 250.915C1210.92 251.827 1208.36 252.283 1205.52 252.283ZM1247.12 252.283C1244.44 252.283 1242.06 251.802 1239.98 250.839C1237.95 249.826 1236.36 248.458 1235.19 246.735C1234.03 244.962 1233.44 242.935 1233.44 240.655C1233.44 238.476 1233.9 236.526 1234.81 234.803C1235.77 233.03 1237.24 231.535 1239.22 230.319C1241.25 229.103 1243.78 228.242 1246.82 227.735L1262.02 225.227V231.155L1248.42 233.435C1245.78 233.891 1243.86 234.727 1242.64 235.943C1241.47 237.159 1240.89 238.654 1240.89 240.427C1240.89 242.099 1241.55 243.492 1242.87 244.607C1244.24 245.722 1245.93 246.279 1247.96 246.279C1250.54 246.279 1252.77 245.747 1254.65 244.683C1256.57 243.568 1258.07 242.074 1259.13 240.199C1260.25 238.324 1260.8 236.247 1260.8 233.967V223.555C1260.8 221.326 1259.97 219.527 1258.3 218.159C1256.67 216.74 1254.52 216.031 1251.84 216.031C1249.5 216.031 1247.43 216.639 1245.6 217.855C1243.83 219.02 1242.51 220.591 1241.65 222.567L1235.5 219.375C1236.26 217.5 1237.47 215.828 1239.14 214.359C1240.82 212.839 1242.77 211.648 1245 210.787C1247.22 209.926 1249.56 209.495 1251.99 209.495C1255.13 209.495 1257.89 210.103 1260.27 211.319C1262.65 212.484 1264.5 214.131 1265.82 216.259C1267.19 218.336 1267.87 220.768 1267.87 223.555V251.371H1260.96V243.619L1262.25 244.075C1261.39 245.696 1260.22 247.115 1258.75 248.331C1257.28 249.547 1255.56 250.51 1253.58 251.219C1251.61 251.928 1249.45 252.283 1247.12 252.283ZM1291.77 251.371L1275.73 210.407H1283.64L1296.48 245.063H1293.74L1306.66 210.407H1314.57L1298.46 251.371H1291.77ZM1341.28 252.283C1337.33 252.283 1333.8 251.346 1330.71 249.471C1327.62 247.596 1325.19 245.038 1323.42 241.795C1321.64 238.502 1320.76 234.828 1320.76 230.775C1320.76 226.671 1321.62 223.023 1323.34 219.831C1325.11 216.639 1327.5 214.131 1330.49 212.307C1333.53 210.432 1336.92 209.495 1340.67 209.495C1343.71 209.495 1346.39 210.052 1348.73 211.167C1351.11 212.231 1353.11 213.7 1354.73 215.575C1356.4 217.399 1357.67 219.502 1358.53 221.883C1359.44 224.214 1359.9 226.646 1359.9 229.179C1359.9 229.736 1359.85 230.37 1359.75 231.079C1359.69 231.738 1359.62 232.371 1359.52 232.979H1325.93V226.899H1355.41L1352.07 229.635C1352.53 227 1352.27 224.644 1351.31 222.567C1350.35 220.49 1348.93 218.843 1347.05 217.627C1345.18 216.411 1343.05 215.803 1340.67 215.803C1338.29 215.803 1336.11 216.411 1334.13 217.627C1332.16 218.843 1330.61 220.591 1329.5 222.871C1328.43 225.1 1328 227.76 1328.21 230.851C1328 233.84 1328.46 236.475 1329.57 238.755C1330.74 240.984 1332.36 242.732 1334.44 243.999C1336.57 245.215 1338.87 245.823 1341.35 245.823C1344.09 245.823 1346.39 245.19 1348.27 243.923C1350.14 242.656 1351.66 241.035 1352.83 239.059L1358.76 242.099C1357.95 243.974 1356.68 245.696 1354.96 247.267C1353.29 248.787 1351.28 250.003 1348.95 250.915C1346.67 251.827 1344.11 252.283 1341.28 252.283Z" fill="#FDFDFD"></path><path d="M1052.18 41.316C1055.37 41.316 1058.17 40.322 1060.16 38.334C1062.36 36.346 1063.55 33.761 1063.55 30.58C1063.55 27.399 1062.36 24.814 1060.16 22.826C1057.97 20.838 1055.37 19.844 1052.18 19.844C1048.98 19.844 1046.19 20.838 1043.99 22.826C1041.79 24.814 1040.59 27.399 1040.59 30.58C1040.59 33.761 1041.79 36.346 1043.99 38.334C1046.19 40.322 1048.98 41.316 1052.18 41.316Z" fill="#FDFDFD"></path><path d="M437.376 86.252C437.376 80.088 436.178 74.72 433.583 70.346C431.187 65.773 427.792 62.393 423.402 59.809C419.008 57.224 413.815 56.031 407.825 56.031C401.437 56.031 395.447 57.622 389.855 60.604C384.264 63.586 379.671 67.96 376.28 73.925C372.885 79.691 371.086 86.451 371.086 94.602C371.086 102.753 372.686 109.116 375.679 114.881C378.676 120.448 382.867 124.822 388.259 127.805C393.648 130.787 399.841 132.377 406.826 132.377C413.815 132.377 420.007 130.787 424.998 127.805C430.188 124.623 434.184 120.448 437.177 114.881L432.783 110.905C430.188 113.688 427.394 116.075 424.397 117.864C421.404 119.653 417.611 120.448 413.218 120.448C406.826 120.448 401.636 118.261 397.242 113.887C393.051 109.513 390.854 103.151 390.456 94.403H436.779C436.978 92.216 437.376 89.433 437.376 86.252ZM418.408 85.257C417.21 86.848 414.814 87.445 411.22 87.445H390.456C390.854 81.48 391.853 76.708 393.449 73.129C395.248 69.551 397.242 67.165 399.439 65.574C401.835 63.984 404.231 63.189 406.627 63.189C410.424 63.189 413.616 64.581 416.211 67.563C418.809 70.545 420.206 74.322 420.206 78.895C420.007 81.48 419.407 83.667 418.408 85.257Z" fill="#FDFDFD"></path><path d="M547.81 62.201C542.617 58.025 535.429 55.839 526.247 55.839C517.061 55.839 509.873 58.025 504.68 62.598C499.49 66.972 496.895 72.937 496.895 80.293C496.895 90.035 500.887 96.994 508.875 100.97C505.082 104.35 502.284 107.531 500.489 110.514C498.69 113.297 497.894 116.279 497.894 119.063C497.894 121.846 498.69 124.232 500.087 126.22C501.687 128.208 503.884 129.799 507.076 130.793C502.284 133.179 498.69 135.565 496.696 138.149C494.499 140.933 493.5 143.915 493.5 147.096C493.5 150.277 494.499 153.458 496.493 156.043C498.69 158.827 502.085 160.814 506.678 162.604C511.47 164.194 517.658 164.99 525.447 164.99C534.434 164.99 541.821 163.797 547.81 161.212C553.8 158.628 558.393 155.447 561.386 151.271C564.582 147.096 565.979 142.722 565.979 137.95C565.979 131.588 563.782 126.618 559.591 122.84C555.396 119.063 548.408 117.273 538.426 117.273H519.457C516.062 117.273 513.865 116.677 512.468 115.683C511.27 114.49 510.67 113.098 510.67 111.11C510.67 108.128 511.669 105.344 513.467 102.76C517.26 103.953 521.455 104.35 526.044 104.35C535.23 104.35 542.617 102.163 547.611 97.789C552.801 93.217 555.396 87.252 555.396 80.094C555.396 75.124 554.397 70.949 552.204 67.37H566.779V56.833L564.582 55.242L547.81 62.201ZM511.071 132.781C514.065 133.378 517.26 133.775 521.053 133.775H537.825C542.617 133.775 546.012 134.769 548.009 136.758C550.007 138.746 551.006 141.132 551.006 143.915C551.006 147.693 549.008 150.874 544.814 153.458C540.822 156.043 534.832 157.435 526.844 157.435C520.456 157.435 515.664 156.441 512.269 154.254C508.875 152.067 507.076 148.687 507.076 144.114C506.877 140.336 508.274 136.559 511.071 132.781ZM535.632 93.217C533.435 96.596 530.239 98.187 526.044 98.187C521.853 98.187 518.856 96.596 516.862 93.415C514.665 90.234 513.666 85.86 513.666 80.492C513.666 75.124 514.864 70.75 517.061 67.569C519.457 64.189 522.653 62.598 526.645 62.598C530.637 62.598 533.833 64.189 535.831 67.37C538.028 70.551 539.226 74.726 539.226 80.094C539.023 85.463 538.028 90.035 535.632 93.217Z" fill="#FDFDFD"></path><path d="M647.625 110.103V82.865C647.625 73.52 645.83 66.76 642.236 62.387C638.642 58.013 633.448 55.825 627.06 55.825C617.676 55.825 608.892 60.2 601.302 69.147V42.306L601.903 21.032L599.706 19.641L572.75 26.4V32.365L583.731 33.956V109.904C583.731 114.278 583.731 118.254 583.532 122.032L573.55 124.02V130.184H610.886V124.02L601.903 122.231C601.7 118.453 601.7 114.278 601.7 110.103V77.298C607.694 71.532 613.684 68.749 619.272 68.749C623.068 68.749 625.862 69.942 627.26 72.129C628.856 74.316 629.655 78.491 629.655 84.257V110.103C629.655 114.278 629.655 118.254 629.456 122.032L619.873 124.02V130.184H657.01V124.02L647.828 122.231C647.625 118.453 647.625 114.477 647.625 110.103Z" fill="#FDFDFD"></path><path d="M376.297 30.383H342.951V37.342L355.33 39.131L336.961 104.94L316.794 38.932L330.971 37.342V30.383H287.842V37.342L301.02 38.932L280.254 104.145L263.082 38.932L275.662 37.342V30.383H231.734V37.342L242.716 38.534L269.871 130.587H280.254L303.017 57.223L326.977 130.587H337.36L363.517 39.131L375.696 37.143V30.383H376.297Z" fill="#FDFDFD"></path><path d="M467.128 41.918C470.321 41.918 473.118 40.924 475.112 38.935C477.309 36.947 478.507 34.363 478.507 31.182C478.507 28 477.309 25.416 475.112 23.428C472.916 21.439 470.321 20.445 467.128 20.445C463.933 20.445 461.135 21.439 458.942 23.428C456.745 25.416 455.547 28 455.547 31.182C455.547 34.363 456.745 36.947 458.942 38.935C461.135 40.924 463.933 41.918 467.128 41.918Z" fill="#FDFDFD"></path><path d="M476.114 109.906V78.493L476.512 57.22L474.116 55.629L446.961 65.172V70.938L457.746 72.33C457.945 75.312 458.144 78.294 458.144 81.078C458.343 83.861 458.343 87.241 458.343 91.218V109.708C458.343 114.082 458.343 118.058 458.144 121.836L448.159 123.824V129.987H485.698V123.824L476.512 122.034C476.313 118.257 476.114 114.28 476.114 109.906Z" fill="#FDFDFD"></path><path d="M1144.23 122.244C1141.23 122.244 1139.83 120.057 1139.83 115.484V82.68C1139.83 72.938 1137.83 65.78 1133.84 61.804C1129.85 57.629 1123.46 55.441 1114.68 55.441C1105.89 55.441 1098.1 57.231 1092.51 60.81C1086.92 64.388 1083.73 69.16 1082.93 75.323C1083.73 79.896 1086.52 82.083 1091.31 82.083C1093.91 82.083 1095.91 81.288 1097.7 79.499C1099.5 77.709 1100.5 75.124 1100.9 71.546L1102.7 63.195C1103.89 62.996 1104.89 62.798 1105.89 62.798C1107.09 62.599 1108.08 62.599 1108.88 62.599C1113.88 62.599 1117.27 63.792 1119.07 66.376C1121.06 68.762 1122.06 73.534 1122.06 80.493V84.668C1119.47 85.463 1116.87 86.059 1114.27 86.855C1111.68 87.65 1109.48 88.246 1107.49 89.042C1100.3 91.428 1094.71 93.615 1090.72 96.199C1086.92 98.585 1084.13 101.17 1082.73 103.953C1081.13 106.736 1080.53 109.719 1080.53 112.9C1080.53 119.063 1082.53 123.835 1086.32 127.016C1090.31 130.197 1095.11 131.788 1100.7 131.788C1105.49 131.788 1109.48 130.794 1112.48 129.004C1115.47 127.016 1118.87 124.034 1122.66 120.256C1123.66 123.835 1125.26 126.618 1127.85 128.606C1130.45 130.595 1133.64 131.589 1137.64 131.589C1141.23 131.589 1144.23 130.794 1146.62 129.402C1149.22 127.811 1151.22 125.425 1153.21 122.045L1149.82 119.063C1147.82 121.051 1146.02 122.244 1144.23 122.244ZM1121.86 114.49C1118.27 117.075 1115.47 118.666 1113.88 119.461C1112.08 120.256 1110.48 120.654 1108.69 120.654C1105.69 120.654 1103.09 119.859 1100.9 118.069C1098.9 116.28 1097.9 113.298 1097.9 109.52C1097.9 106.538 1098.9 103.754 1100.7 101.17C1102.7 98.585 1106.09 96.199 1111.08 94.211C1112.48 93.615 1113.88 93.217 1115.87 92.62C1117.87 92.024 1119.87 91.428 1121.86 90.632V114.49Z" fill="#FDFDFD"></path><path d="M1194.92 85.861L1188.93 84.071C1183.73 82.282 1180.34 80.691 1178.34 79.101C1176.54 77.311 1175.54 75.124 1175.54 72.54C1175.54 69.557 1176.74 67.37 1178.94 65.581C1181.14 63.792 1184.33 62.996 1188.32 62.996C1191.72 62.996 1194.92 63.593 1197.71 64.786L1200.51 77.51H1210.49L1211.29 61.605C1207.69 59.616 1204.1 58.026 1200.51 57.032C1196.91 55.839 1193.12 55.441 1188.73 55.441C1182.53 55.441 1177.34 56.435 1172.95 58.622C1168.76 60.611 1165.56 63.394 1163.37 66.973C1161.17 70.353 1159.97 74.13 1159.97 78.504C1159.97 83.873 1161.57 88.246 1164.76 91.825C1168.16 95.404 1172.55 97.989 1178.14 99.778L1185.73 102.363C1190.52 103.953 1193.92 105.743 1195.91 107.532C1197.91 109.321 1198.91 111.508 1198.91 114.291C1198.91 117.473 1197.71 120.057 1195.11 121.847C1192.52 123.636 1188.73 124.63 1183.53 124.63C1179.34 124.63 1175.35 123.835 1171.75 122.443L1168.96 108.526H1158.77L1158.97 126.022C1162.77 128.209 1166.56 129.601 1170.55 130.595C1174.55 131.788 1178.74 132.185 1183.33 132.185C1193.52 132.185 1201.3 129.998 1206.7 125.624C1212.28 121.25 1215.08 115.683 1215.08 108.924C1215.08 103.754 1213.49 99.181 1210.49 95.603C1207.49 91.428 1202.3 88.246 1194.92 85.861Z" fill="#FDFDFD"></path><path d="M1292.17 85.662C1292.17 79.499 1290.97 74.13 1288.37 69.756C1285.98 65.184 1282.58 61.804 1278.19 59.219C1273.8 56.634 1268.6 55.441 1262.61 55.441C1256.23 55.441 1250.24 57.032 1244.64 60.014C1239.05 62.996 1234.46 67.37 1231.07 73.335C1227.67 79.101 1225.88 85.861 1225.88 94.012C1225.88 101.965 1227.47 108.526 1230.47 114.291C1233.46 119.859 1237.66 124.233 1243.04 127.215C1248.44 130.197 1254.63 131.788 1261.62 131.788C1268.6 131.788 1274.79 130.197 1279.79 127.215C1284.98 124.034 1288.97 119.859 1291.97 114.291L1287.57 110.315C1284.98 113.099 1282.18 115.485 1279.19 117.274C1276.19 119.063 1272.4 119.859 1268.01 119.859C1261.62 119.859 1256.43 117.671 1252.03 113.298C1247.84 108.924 1245.64 102.561 1245.24 93.813H1291.57C1291.97 91.626 1292.17 88.843 1292.17 85.662ZM1273.2 84.469C1272 86.059 1269.6 86.656 1266.01 86.656H1245.24C1245.64 80.691 1246.64 75.92 1248.24 72.341C1250.03 68.762 1252.03 66.376 1254.23 64.786C1256.62 63.195 1259.02 62.4 1261.42 62.4C1265.21 62.4 1268.4 63.792 1271 66.774C1273.59 69.756 1275 73.534 1275 78.107C1275 80.89 1274.39 83.077 1273.2 84.469Z" fill="#FDFDFD"></path><path d="M699.156 122.442C696.76 122.442 694.762 121.646 693.166 119.857C691.769 118.068 690.969 115.483 690.969 111.706V67.369H709.341V58.024H691.168L691.769 37.348H679.587L673.8 58.024L661.617 59.615V67.369H672.801V99.379C672.801 102.361 672.801 104.747 672.598 106.934V113.495C672.598 120.056 674.397 125.026 677.792 128.008C681.186 130.991 685.978 132.581 691.968 132.581C696.76 132.581 700.752 131.786 704.147 129.997C707.542 128.207 710.137 125.822 711.936 122.641L708.342 118.863C705.146 121.05 701.95 122.243 699.156 122.442Z" fill="#FDFDFD"></path><path d="M1355.66 95.006C1352.46 91.228 1347.27 88.246 1339.88 85.661L1333.89 83.872C1328.7 82.083 1325.31 80.492 1323.31 78.901C1321.51 77.112 1320.51 74.925 1320.51 72.34C1320.51 69.358 1321.71 67.171 1323.91 65.382C1326.11 63.593 1329.3 62.797 1333.29 62.797C1336.69 62.797 1339.88 63.394 1342.68 64.586L1345.47 77.311H1355.46L1356.25 61.405C1352.66 59.417 1349.07 57.827 1345.47 56.833C1341.88 55.64 1338.09 55.242 1333.69 55.242C1327.5 55.242 1322.31 56.236 1317.92 58.423C1313.72 60.411 1310.53 63.195 1308.34 66.774C1306.14 70.154 1304.94 73.931 1304.94 78.305C1304.94 83.673 1306.54 88.047 1309.73 91.626C1313.13 95.205 1317.52 97.789 1323.11 99.579L1330.7 102.163C1335.49 103.754 1338.89 105.543 1340.88 107.333C1342.88 109.122 1343.88 111.309 1343.88 114.092C1343.88 117.273 1342.68 119.858 1340.08 121.647C1337.48 123.437 1333.69 124.431 1328.5 124.431C1324.31 124.431 1320.31 123.635 1316.72 122.244L1313.93 108.327H1303.74L1303.94 125.823C1307.73 128.01 1311.53 129.401 1315.52 130.395C1319.51 131.588 1323.71 131.986 1328.3 131.986C1338.48 131.986 1346.27 129.799 1351.66 125.425C1357.25 121.051 1360.05 115.484 1360.05 108.724C1360.45 103.356 1358.85 98.783 1355.66 95.006Z" fill="#FDFDFD"></path><path d="M754.259 86.451L748.269 84.662C743.075 82.872 739.681 81.282 737.686 79.691C735.888 77.902 734.889 75.715 734.889 73.13C734.889 70.148 736.087 67.961 738.284 66.172C740.48 64.382 743.676 63.587 747.668 63.587C751.063 63.587 754.259 64.183 757.053 65.376L759.847 78.1H769.833L770.632 62.394C767.035 60.406 763.441 58.815 759.847 57.821C756.253 56.628 752.46 56.23 748.066 56.23C741.878 56.23 736.688 57.225 732.294 59.412C728.103 61.4 724.907 64.183 722.71 67.762C720.513 71.142 719.315 74.919 719.315 79.293C719.315 84.662 720.911 89.036 724.107 92.614C727.502 96.193 731.896 98.778 737.484 100.567L745.073 103.152C749.865 104.742 753.26 106.532 755.258 108.321C757.252 110.11 758.251 112.297 758.251 115.081C758.251 118.262 757.053 120.847 754.458 122.636C751.863 124.425 748.066 125.419 742.876 125.419C738.682 125.419 734.69 124.624 731.096 123.232L728.302 109.315H718.117L718.316 126.811C722.109 128.998 725.906 130.39 729.898 131.384C733.89 132.577 738.085 132.974 742.677 132.974C752.858 132.974 760.647 130.787 766.04 126.413C771.628 122.039 774.425 116.472 774.425 109.713C774.425 104.543 772.826 99.971 769.833 96.392C766.836 92.018 761.646 88.837 754.259 86.451Z" fill="#FDFDFD"></path><path d="M1061.16 109.317V77.903L1061.56 56.63L1059.16 55.039L1032.01 64.583V70.348L1042.79 71.74C1042.99 74.722 1042.99 77.704 1042.99 80.488C1043.19 83.272 1043.19 86.651 1043.19 90.628V109.118C1043.19 113.492 1043.19 117.468 1042.99 121.246L1033.01 123.234V129.397H1070.54V123.234L1061.36 121.445C1061.16 117.667 1061.16 113.691 1061.16 109.317Z" fill="#FDFDFD"></path><path d="M873.867 69.947L885.648 71.935C884.45 77.303 883.053 82.274 881.254 86.846C879.459 91.22 877.461 95.594 874.667 100.167C872.068 97.582 869.672 94.998 867.077 92.214C864.482 89.431 861.887 86.449 858.89 83.267C856.295 80.484 854.099 78.098 852.101 76.11C850.107 73.923 848.507 72.134 847.11 70.543C854.898 66.766 860.49 62.988 864.283 59.012C867.877 55.035 869.672 50.462 869.672 45.293C869.672 39.527 867.475 34.955 863.284 31.376C859.089 27.797 852.9 26.008 844.913 26.008C836.929 26.008 830.736 27.996 825.944 31.972C820.953 35.949 818.557 41.516 818.557 48.474C818.557 52.252 819.357 56.228 820.754 60.006C822.151 63.982 824.746 67.959 828.34 72.332C828.539 72.531 828.742 72.531 828.742 72.73C828.941 72.929 828.941 72.929 829.14 73.128C821.352 76.905 815.561 81.08 811.768 86.051C807.975 90.822 806.18 96.39 806.18 102.752C806.18 107.722 807.378 112.096 809.973 116.271C812.568 120.248 816.162 123.628 820.953 126.014C825.745 128.399 831.337 129.592 837.725 129.592C844.913 129.592 850.903 128.399 855.695 126.212C860.49 123.826 864.482 121.043 867.678 117.862C868.474 118.657 869.075 119.254 869.871 120.049C870.671 120.844 871.471 121.441 872.068 122.236C875.065 125.019 878.058 127.008 881.055 128.001C884.048 129.195 887.645 129.592 892.035 129.592C894.232 129.592 896.031 129.393 898.025 129.195C900.023 128.996 902.22 128.598 905.213 127.803L906.212 119.453L891.637 116.868C889.44 114.482 887.443 112.494 885.448 110.307C883.451 108.319 881.652 106.33 879.857 104.342C883.451 99.173 886.444 94.004 888.843 88.834C891.438 83.665 893.635 77.701 895.43 71.14L906.411 69.35V62.789H874.464L873.867 69.947ZM836.328 35.352C838.724 32.966 841.518 31.774 844.913 31.774C848.308 31.774 851.105 32.966 853.299 35.153C855.496 37.34 856.693 40.323 856.693 44.299C856.693 48.077 855.496 51.655 853.299 55.234C850.903 58.813 847.711 62.391 843.715 65.97C842.919 64.976 842.119 63.982 841.518 63.187C840.722 62.193 840.121 61.397 839.325 60.404C836.929 57.222 835.329 54.24 834.533 51.854C833.733 49.27 833.335 46.884 833.335 44.498C832.933 40.919 834.131 37.937 836.328 35.352ZM844.714 119.055C840.32 119.055 836.527 118.061 833.132 116.271C829.94 114.283 827.341 111.897 825.546 108.518C823.747 105.336 822.752 101.758 822.752 97.98C822.752 94.401 823.548 91.021 824.945 87.443C826.346 83.864 828.941 80.683 832.734 77.899C834.732 80.285 836.929 83.069 839.325 86.051C841.92 89.033 844.913 92.612 848.308 96.787C850.505 99.372 852.701 102.155 855.097 104.939C857.493 107.722 860.088 110.506 862.683 113.289C857.692 117.066 851.703 118.856 844.714 119.055Z" fill="#FDFDFD"></path><path d="M993.27 76.913C1002.25 75.123 1008.64 72.34 1012.23 67.966C1015.83 63.592 1017.63 58.821 1017.63 53.651C1017.63 46.692 1014.83 40.927 1009.24 36.553C1003.65 31.98 995.06 29.793 983.48 29.793H937.16V36.951L949.94 38.342C950.13 44.704 950.13 51.265 950.13 57.627V102.163C950.13 108.525 949.94 114.887 949.94 121.249L937.16 122.641V129.799H979.29C987.67 129.799 994.66 129.003 1000.25 127.413C1005.85 125.822 1010.44 123.635 1013.63 120.852C1017.03 118.068 1019.42 115.086 1020.82 111.905C1022.42 108.525 1023.02 105.344 1023.02 101.964C1023.02 95.602 1020.62 90.234 1016.03 85.661C1011.43 81.088 1003.85 78.305 993.27 76.913ZM969.7 56.633C969.9 50.271 969.9 43.909 969.9 37.547H977.89C984.68 37.547 989.87 38.938 993.07 41.722C996.46 44.506 998.26 48.88 998.26 55.043C998.26 61.206 996.46 66.177 992.87 69.358C989.27 72.539 983.48 73.931 975.69 73.931H969.51L969.7 56.633ZM977.09 121.846H969.9C969.7 115.484 969.7 109.121 969.7 102.56V81.486H976.49C985.48 81.486 992.07 83.275 996.26 86.655C1000.45 90.035 1002.65 95.005 1002.65 101.964C1002.65 115.086 994.26 121.846 977.09 121.846Z" fill="#FDFDFD"></path><path d="M17.259 21.629C23.249 21.629 28.041 16.857 28.041 10.8924C28.041 4.9279 23.249 0.156189 17.259 0.156189C11.2687 0.156189 6.47656 4.9279 6.47656 10.8924C6.47656 16.857 11.2687 21.629 17.259 21.629Z" fill="#FCBC32"></path><path d="M21.063 70.155C30.248 67.968 36.038 58.822 33.842 49.676C31.646 40.531 22.461 34.765 13.276 36.952C4.09097 39.139 -1.69943 48.285 0.496972 57.43C2.69327 66.775 11.8782 72.342 21.063 70.155Z" fill="#FCBC32"></path><path d="M21.063 155.448C30.248 153.26 36.038 144.115 33.842 134.969C31.646 125.824 22.461 120.058 13.276 122.245C4.09097 124.432 -1.69943 133.578 0.496972 142.723C2.69327 151.869 11.8782 157.635 21.063 155.448Z" fill="#FCBC32"></path><path d="M27.869 96.185C27.869 90.221 23.077 85.449 17.087 85.449C11.0968 85.449 6.30469 90.221 6.30469 96.185C6.30469 102.15 11.0968 106.922 17.087 106.922C23.077 106.922 27.869 102.15 27.869 96.185Z" fill="#FCBC32"></path><path d="M82.9769 95C73.5919 95 65.8049 102.555 65.8049 112.098C65.8049 121.443 73.3919 129.197 82.9769 129.197C92.3609 129.197 100.148 121.641 100.148 112.098C99.9479 102.555 92.3609 95 82.9769 95Z" fill="#FCBC32"></path><path d="M82.9781 143.902C76.9881 143.902 72.1951 148.674 72.1951 154.639C72.1951 160.603 76.9881 165.375 82.9781 165.375C88.9681 165.375 93.7601 160.603 93.7601 154.639C93.5601 148.674 88.7681 143.902 82.9781 143.902Z" fill="#FCBC32"></path><path d="M82.9781 80.082C88.9681 80.082 93.7601 75.31 93.7601 69.345C93.7601 63.381 88.9681 58.609 82.9781 58.609C76.9881 58.609 72.1951 63.381 72.1951 69.345C72.1951 75.31 76.9881 80.082 82.9781 80.082Z" fill="#FCBC32"></path><path d="M84.5601 37.345C90.3501 36.351 94.3431 30.983 93.3451 25.217C92.3471 19.451 86.9561 15.475 81.1651 16.469C75.3751 17.463 71.3811 22.831 72.3801 28.597C73.3781 34.363 78.7691 38.14 84.5601 37.345Z" fill="#FCBC32"></path><path d="M160.649 65.579C167.238 59.018 167.238 48.083 160.649 41.522C154.06 34.961 143.078 34.961 136.489 41.522C129.9 48.083 129.9 59.018 136.489 65.579C143.078 72.339 154.06 72.339 160.649 65.579Z" fill="#FCBC32"></path><path d="M148.665 21.629C154.655 21.629 159.447 16.857 159.447 10.8924C159.447 4.9279 154.655 0.156189 148.665 0.156189C142.675 0.156189 137.883 4.9279 137.883 10.8924C137.883 16.857 142.675 21.629 148.665 21.629Z" fill="#FCBC32"></path><path d="M148.665 85.648C142.675 85.648 137.883 90.42 137.883 96.385C137.883 102.349 142.675 107.121 148.665 107.121C154.655 107.121 159.447 102.349 159.447 96.385C159.248 90.42 154.455 85.648 148.665 85.648Z" fill="#FCBC32"></path><path d="M148.665 128.203C142.675 128.203 137.883 132.975 137.883 138.939C137.883 144.904 142.675 149.675 148.665 149.675C154.655 149.675 159.447 144.904 159.447 138.939C159.248 132.975 154.455 128.203 148.665 128.203Z" fill="#FCBC32"></path></g><defs><clipPath id="clip0_7_2"><rect width="1360" height="269" fill="white"></rect></clipPath></defs></svg>